<svg width="24" height="23" viewBox="0 0 24 23" fill="none" xmlns="http://www.w3.org/2000/svg">
<path d="M12.0731 0C5.76901 0 0.658447 5.11056 0.658447 11.4146C0.658447 16.7676 4.344 21.2595 9.31576 22.4932V14.9029H6.96206V11.4146H9.31576V9.91156C9.31576 6.02647 11.0741 4.2257 14.8884 4.2257C15.6116 4.2257 16.8595 4.3677 17.3699 4.50924V7.67109C17.1005 7.64278 16.6325 7.62863 16.0513 7.62863C14.1798 7.62863 13.4565 8.33771 13.4565 10.1809V11.4146H17.185L16.5444 14.9029H13.4565V22.7457C19.1086 22.0631 23.4882 17.2507 23.4882 11.4146C23.4877 5.11056 18.3772 0 12.0731 0Z" fill="white"/>
</svg>
