<svg width="24" height="23" viewBox="0 0 24 23" fill="none" xmlns="http://www.w3.org/2000/svg">
<g clip-path="url(#clip0_1_2959)">
<path d="M12.2437 2.05553C15.2936 2.05553 15.6548 2.0689 16.8542 2.12241C17.9689 2.17146 18.5708 2.35873 18.9721 2.51479C19.5027 2.71989 19.8862 2.96959 20.283 3.36643C20.6843 3.76772 20.9296 4.14672 21.1347 4.67732C21.2907 5.07862 21.478 5.68502 21.527 6.79527C21.5806 7.99916 21.5939 8.36033 21.5939 11.4057C21.5939 14.4556 21.5806 14.8167 21.527 16.0162C21.478 17.1309 21.2907 17.7328 21.1347 18.1341C20.9296 18.6647 20.6799 19.0482 20.283 19.445C19.8817 19.8463 19.5027 20.0915 18.9721 20.2966C18.5708 20.4527 17.9644 20.64 16.8542 20.689C15.6503 20.7425 15.2891 20.7559 12.2437 20.7559C9.19389 20.7559 8.83272 20.7425 7.63329 20.689C6.51858 20.64 5.91664 20.4527 5.51534 20.2966C4.98474 20.0915 4.60128 19.8418 4.20444 19.445C3.80315 19.0437 3.55791 18.6647 3.35281 18.1341C3.19675 17.7328 3.00948 17.1264 2.96043 16.0162C2.90692 14.8123 2.89355 14.4511 2.89355 11.4057C2.89355 8.35587 2.90692 7.9947 2.96043 6.79527C3.00948 5.68056 3.19675 5.07862 3.35281 4.67732C3.55791 4.14672 3.80761 3.76326 4.20444 3.36643C4.60574 2.96513 4.98474 2.71989 5.51534 2.51479C5.91664 2.35873 6.52304 2.17146 7.63329 2.12241C8.83272 2.0689 9.19389 2.05553 12.2437 2.05553ZM12.2437 0C9.14484 0 8.75692 0.0133765 7.53966 0.0668826C6.32685 0.120389 5.49305 0.316578 4.77072 0.597485C4.01717 0.891768 3.37956 1.27969 2.7464 1.9173C2.10879 2.55046 1.72087 3.18807 1.42659 3.93716C1.14568 4.66395 0.94949 5.49329 0.895984 6.7061C0.842478 7.92782 0.829102 8.31574 0.829102 11.4146C0.829102 14.5135 0.842478 14.9014 0.895984 16.1187C0.94949 17.3315 1.14568 18.1653 1.42659 18.8877C1.72087 19.6412 2.10879 20.2788 2.7464 20.912C3.37956 21.5451 4.01717 21.9375 4.76626 22.2273C5.49305 22.5082 6.32239 22.7044 7.5352 22.7579C8.75246 22.8114 9.14038 22.8248 12.2393 22.8248C15.3382 22.8248 15.7261 22.8114 16.9434 22.7579C18.1562 22.7044 18.99 22.5082 19.7123 22.2273C20.4614 21.9375 21.099 21.5451 21.7322 20.912C22.3653 20.2788 22.7577 19.6412 23.0475 18.8921C23.3284 18.1653 23.5246 17.336 23.5781 16.1232C23.6316 14.9059 23.645 14.518 23.645 11.4191C23.645 8.3202 23.6316 7.93228 23.5781 6.71502C23.5246 5.50221 23.3284 4.66841 23.0475 3.94607C22.7666 3.18807 22.3787 2.55046 21.7411 1.9173C21.1079 1.28415 20.4703 0.891768 19.7212 0.601944C18.9944 0.321037 18.1651 0.124848 16.9523 0.0713415C15.7306 0.0133765 15.3426 0 12.2437 0Z" fill="white"/>
<path d="M12.2437 5.55127C9.00663 5.55127 6.38037 8.17753 6.38037 11.4146C6.38037 14.6518 9.00663 17.278 12.2437 17.278C15.4809 17.278 18.1071 14.6518 18.1071 11.4146C18.1071 8.17753 15.4809 5.55127 12.2437 5.55127ZM12.2437 15.218C10.1436 15.218 8.44036 13.5148 8.44036 11.4146C8.44036 9.31453 10.1436 7.61125 12.2437 7.61125C14.3439 7.61125 16.0471 9.31453 16.0471 11.4146C16.0471 13.5148 14.3439 15.218 12.2437 15.218Z" fill="white"/>
<path d="M19.7079 5.31937C19.7079 6.07737 19.0926 6.68823 18.3391 6.68823C17.5811 6.68823 16.9702 6.07291 16.9702 5.31937C16.9702 4.56136 17.5855 3.9505 18.3391 3.9505C19.0926 3.9505 19.7079 4.56582 19.7079 5.31937Z" fill="white"/>
</g>
<defs>
<clipPath id="clip0_1_2959">
<rect width="22.8293" height="22.8293" fill="white" transform="translate(0.829102)"/>
</clipPath>
</defs>
</svg>
