<svg width="23" height="23" viewBox="0 0 23 23" fill="none" xmlns="http://www.w3.org/2000/svg">
<path d="M21.1394 0H1.68544C0.753544 0 0 0.735709 0 1.64531V21.1795C0 22.0891 0.753544 22.8293 1.68544 22.8293H21.1394C22.0713 22.8293 22.8293 22.0891 22.8293 21.184V1.64531C22.8293 0.735709 22.0713 0 21.1394 0ZM6.77298 19.4539H3.38426V8.55652H6.77298V19.4539ZM5.07862 7.07172C3.99066 7.07172 3.11227 6.19333 3.11227 5.10983C3.11227 4.02633 3.99066 3.14794 5.07862 3.14794C6.16212 3.14794 7.04051 4.02633 7.04051 5.10983C7.04051 6.18887 6.16212 7.07172 5.07862 7.07172ZM19.4539 19.4539H16.0697V14.1568C16.0697 12.895 16.0474 11.2675 14.3084 11.2675C12.5472 11.2675 12.2796 12.6453 12.2796 14.0676V19.4539H8.89985V8.55652H12.1459V10.0458H12.1905C12.6408 9.18967 13.7466 8.28453 15.3919 8.28453C18.8208 8.28453 19.4539 10.5407 19.4539 13.4746V19.4539V19.4539Z" fill="white"/>
</svg>
